<?xml version="1.0" standalone="no"?>
<!DOCTYPE svg PUBLIC "-//W3C//DTD SVG 20010904//EN"
 "http://www.w3.org/TR/2001/REC-SVG-20010904/DTD/svg10.dtd">
<svg version="1.0" xmlns="http://www.w3.org/2000/svg"
 width="1080.000000pt" height="1080.000000pt" viewBox="0 0 1080.000000 1080.000000"
 preserveAspectRatio="xMidYMid meet">

<g transform="translate(0.000000,1080.000000) scale(0.100000,-0.100000)"
fill="#000000" stroke="none">
<path d="M5560 8524 c-50 -22 -109 -81 -136 -139 -33 -68 -34 -191 -3 -250 31
-59 77 -102 139 -133 46 -23 68 -27 135 -27 67 0 87 4 125 25 30 17 45 32 45
45 0 28 -28 30 -78 6 -84 -41 -205 -14 -271 59 -36 40 -45 61 -49 115 -2 29
-1 30 38 27 126 -8 384 -33 409 -38 l29 -7 -5 74 c-3 48 -12 89 -26 115 -27
53 -104 121 -151 134 -53 15 -161 11 -201 -6z m232 -77 c49 -38 78 -89 78
-139 l0 -40 -37 5 c-21 3 -101 11 -178 17 -178 15 -185 16 -185 39 0 21 54 99
84 121 36 27 50 30 126 27 65 -2 80 -6 112 -30z"/>
<path d="M4920 8509 c-59 -26 -96 -62 -128 -124 -22 -42 -27 -63 -27 -130 0
-67 5 -88 27 -130 54 -105 136 -155 253 -155 85 0 152 22 206 68 44 38 48 52
18 70 -19 12 -25 10 -53 -17 -43 -42 -95 -61 -166 -61 -68 0 -119 21 -161 67
-29 31 -55 90 -45 100 8 8 77 19 246 38 74 9 152 21 174 26 l39 10 -7 46 c-9
69 -69 151 -135 185 -68 36 -171 39 -241 7z m222 -65 c44 -28 91 -95 86 -121
-3 -15 -20 -20 -93 -30 -321 -43 -305 -43 -305 -3 0 62 76 162 133 175 78 17
129 11 179 -21z"/>
<path d="M6150 8418 c-13 -48 -22 -80 -74 -253 -20 -66 -43 -140 -51 -165 -21
-63 -19 -79 11 -91 15 -5 28 -8 29 -7 3 3 30 89 69 218 40 128 61 160 130 194
52 26 62 28 98 19 36 -10 40 -9 55 14 22 34 6 46 -64 47 -45 0 -69 -5 -106
-26 -40 -22 -47 -24 -43 -10 19 71 16 85 -21 96 -19 6 -23 2 -33 -36z"/>
<path d="M4295 8346 c-55 -25 -121 -91 -131 -131 -3 -14 -10 -25 -14 -25 -13
0 -28 24 -32 50 -2 20 -8 24 -28 22 -39 -4 -43 -16 -21 -65 12 -25 21 -49 21
-52 0 -4 6 -21 14 -38 8 -18 40 -97 71 -177 77 -195 81 -203 108 -194 12 3 25
9 29 13 4 4 -7 45 -26 91 -107 265 -111 286 -79 351 37 76 96 112 183 113 106
1 135 -32 220 -259 54 -144 68 -162 110 -135 14 9 10 25 -45 155 -7 17 -25 59
-39 95 -65 170 -109 210 -228 210 -45 0 -77 -7 -113 -24z"/>
<path d="M3667 8282 c-34 -37 -15 -82 33 -82 32 0 50 17 50 46 0 48 -52 70
-83 36z"/>
<path d="M3792 8088 c-18 -18 -16 -24 32 -102 56 -93 237 -380 242 -385 3 -3
16 6 30 20 l25 25 -35 52 c-18 28 -36 55 -38 59 -1 5 -37 62 -78 127 -93 146
-119 188 -126 204 -8 15 -36 16 -52 0z"/>
<path d="M7216 7719 c-141 -138 -256 -257 -256 -264 0 -6 9 -20 19 -30 19 -16
21 -16 48 3 15 11 55 48 88 81 l59 61 93 -92 c61 -61 93 -100 93 -115 0 -12
-7 -50 -15 -85 -8 -35 -17 -92 -21 -128 -6 -58 -4 -67 15 -84 31 -28 39 -13
50 89 13 128 30 188 50 179 9 -4 51 -9 93 -12 70 -4 82 -1 122 22 24 14 58 43
75 65 108 136 78 248 -122 449 -61 61 -117 112 -123 112 -7 0 -127 -113 -268
-251z m372 67 c89 -90 143 -177 141 -224 -2 -36 -55 -117 -97 -147 -36 -25
-53 -30 -101 -30 -72 0 -103 19 -225 140 l-89 87 134 134 c74 74 136 134 140
134 3 0 47 -42 97 -94z"/>
<path d="M3527 7912 c-23 -25 -21 -32 14 -67 l31 -30 -73 -8 c-82 -9 -113 -23
-170 -74 -118 -107 -121 -292 -7 -399 163 -154 435 -49 464 180 l6 48 39 -38
c47 -46 79 -108 79 -153 0 -43 -32 -102 -81 -149 -42 -41 -155 -102 -187 -102
-26 0 -30 -6 -24 -36 4 -24 8 -26 41 -21 99 13 248 123 291 214 55 118 32 189
-110 340 -36 38 -114 124 -175 191 -60 67 -112 122 -116 122 -3 0 -13 -8 -22
-18z m94 -178 c69 -38 121 -119 121 -190 0 -42 -44 -125 -86 -162 -103 -90
-242 -69 -321 48 -26 39 -30 54 -30 111 0 57 4 71 28 103 87 114 186 145 288
90z"/>
<path d="M6582 7768 c-22 -29 -23 -57 -3 -77 12 -12 29 -21 39 -21 46 0 71 79
33 100 -26 14 -56 13 -69 -2z"/>
<path d="M2980 7283 c-36 -14 -75 -50 -109 -102 -34 -54 -36 -60 -36 -143 0
-49 -2 -88 -4 -88 -2 0 -19 10 -39 22 -34 21 -35 21 -48 3 -22 -30 -17 -43 34
-72 67 -39 222 -137 342 -217 30 -20 61 -36 67 -36 17 0 51 52 37 57 -5 2 -32
18 -59 36 -28 18 -79 50 -115 71 -163 97 -201 184 -139 314 29 59 80 92 144
92 54 0 97 -21 251 -123 39 -26 76 -47 81 -47 6 0 16 -7 23 -15 12 -14 16 -13
37 6 12 13 23 26 23 30 0 9 -296 194 -333 208 -29 11 -131 14 -157 4z"/>
<path d="M7661 7170 c-64 -30 -118 -76 -149 -128 -24 -42 -27 -57 -27 -132 1
-72 5 -93 27 -136 60 -115 184 -194 207 -132 7 20 2 26 -43 48 -97 49 -150
159 -126 266 11 47 60 114 84 114 10 0 52 -61 70 -100 4 -8 12 -24 19 -35 20
-33 90 -154 115 -199 30 -54 36 -59 60 -52 28 9 97 77 118 117 25 46 25 190 1
235 -25 48 -66 93 -111 122 -57 36 -180 42 -245 12z m233 -77 c81 -57 109
-169 65 -260 -26 -53 -66 -85 -80 -62 -93 151 -189 324 -185 334 13 36 144 28
200 -12z"/>
<path d="M2416 6708 c-10 -35 -24 -79 -32 -98 -41 -107 -97 -311 -87 -321 11
-11 206 -79 228 -79 8 0 29 -7 47 -15 18 -7 87 -30 153 -50 66 -20 134 -41
150 -46 120 -40 115 -40 126 -12 10 26 63 194 72 228 3 11 20 60 36 110 37
108 39 141 10 150 -21 7 -39 -7 -39 -31 0 -7 -18 -66 -40 -133 -22 -66 -40
-130 -40 -140 0 -11 -4 -22 -9 -25 -4 -3 -14 -26 -21 -51 -7 -25 -14 -45 -16
-45 -2 0 -45 13 -96 29 -51 17 -106 31 -122 33 -16 2 -34 10 -39 19 -10 17 -8
27 70 268 18 57 32 105 31 106 -14 12 -47 13 -55 3 -5 -7 -24 -60 -42 -118
-17 -58 -36 -118 -42 -135 -6 -16 -16 -45 -22 -63 -13 -39 -17 -39 -142 -1
-104 32 -125 40 -125 51 0 19 52 192 107 352 15 47 15 50 -2 63 -31 22 -39 15
-59 -49z"/>
<path d="M8018 6618 c-50 -29 -60 -57 -57 -163 7 -206 6 -215 -20 -236 -87
-70 -185 58 -180 235 l2 81 -29 0 -29 0 -3 -84 c-3 -93 18 -170 65 -242 34
-51 69 -69 135 -69 116 0 147 72 117 274 -9 59 -8 79 2 102 30 61 97 69 144
18 34 -37 68 -144 63 -202 -3 -45 -2 -47 24 -50 23 -3 29 2 34 24 14 55 -33
220 -78 275 -24 30 -83 59 -118 59 -19 0 -51 -10 -72 -22z"/>
<path d="M8055 6101 c-89 -16 -162 -73 -201 -156 -36 -75 -34 -192 4 -265 15
-30 39 -63 55 -74 25 -19 28 -19 44 -3 16 16 16 18 -3 39 -55 62 -74 136 -60
231 11 71 99 157 161 157 12 0 22 -71 46 -325 5 -60 12 -116 14 -122 7 -21 72
-15 129 11 154 70 196 277 85 417 -54 68 -174 108 -274 90z m156 -80 c70 -31
112 -88 125 -169 14 -86 -77 -212 -154 -212 -16 0 -21 15 -35 108 -9 59 -19
149 -22 200 -5 92 -5 92 19 92 13 0 43 -9 67 -19z"/>
<path d="M2583 5698 c-51 -11 -142 -90 -168 -145 -27 -56 -24 -176 5 -233 50
-101 133 -150 252 -150 57 0 82 6 134 30 71 34 105 72 135 150 36 95 16 234
-42 296 -26 28 -42 30 -59 9 -11 -13 -10 -21 7 -43 40 -54 53 -91 53 -149 -1
-97 -49 -173 -132 -207 -68 -29 -64 -39 -72 211 -5 156 -11 230 -19 235 -15
10 -40 9 -94 -4z m61 -220 c4 -90 9 -179 9 -198 2 -32 -1 -35 -28 -38 -39 -3
-100 32 -138 80 -27 33 -30 45 -31 110 -1 62 3 79 26 117 28 47 88 89 129 90
l26 1 7 -162z"/>
<path d="M7935 5466 c-69 -31 -105 -101 -105 -206 0 -71 13 -113 49 -154 15
-18 14 -19 -26 -14 -44 6 -53 -1 -53 -43 0 -16 7 -19 43 -19 23 0 73 -7 112
-15 89 -18 243 -30 289 -21 114 22 180 203 130 356 -20 60 -34 74 -58 57 -17
-12 -17 -17 4 -85 24 -79 22 -112 -9 -185 -24 -55 -68 -80 -136 -75 l-50 3 5
75 c3 41 5 116 5 167 -1 84 -3 95 -25 119 -47 51 -116 66 -175 40z m118 -76
c42 -34 49 -79 31 -205 -9 -60 -17 -111 -18 -113 -2 -1 -25 1 -52 5 -97 13
-147 99 -129 220 14 93 104 143 168 93z"/>
<path d="M2435 5020 c-8 -13 28 -86 58 -118 12 -13 38 -32 57 -42 l35 -18 -43
-11 c-37 -11 -42 -15 -42 -41 0 -23 4 -30 20 -30 19 0 133 26 225 52 55 15
150 37 208 48 86 16 90 18 83 53 -8 39 -7 38 -42 27 -16 -5 -72 -18 -124 -30
-52 -11 -116 -26 -142 -32 -40 -10 -57 -9 -101 5 -59 19 -84 41 -117 105 -16
31 -28 42 -45 42 -13 0 -27 -5 -30 -10z"/>
<path d="M7750 4871 c-21 -40 -12 -47 93 -80 56 -18 128 -42 160 -53 108 -39
181 -139 156 -215 -14 -43 -6 -63 25 -63 29 0 36 16 36 83 0 37 -8 65 -25 95
-26 45 -20 51 32 31 24 -9 30 -7 45 11 10 12 18 26 18 30 0 10 -426 150 -455
150 -11 0 -29 7 -39 15 -26 20 -33 19 -46 -4z"/>
<path d="M2960 4685 c-52 -24 -122 -56 -155 -70 -133 -60 -182 -120 -173 -215
7 -70 61 -172 120 -225 55 -50 73 -55 83 -24 5 15 -3 29 -38 60 -124 109 -131
263 -15 315 21 9 40 15 42 13 2 -2 29 -56 59 -119 56 -118 87 -157 145 -180
64 -25 159 26 183 98 32 98 -41 248 -141 290 l-35 15 33 15 c32 16 37 27 26
56 -9 23 -29 19 -134 -29z m132 -133 c29 -28 47 -58 59 -98 17 -55 17 -58 -1
-94 -32 -62 -97 -78 -148 -35 -30 25 -78 109 -113 198 l-19 48 32 15 c21 9 55
13 91 11 53 -3 62 -7 99 -45z"/>
<path d="M7655 4471 c-98 -45 -165 -151 -165 -262 0 -76 16 -108 46 -91 16 9
19 22 19 89 0 69 3 83 29 120 15 23 45 55 65 70 32 25 44 28 111 28 70 0 79
-3 134 -40 66 -43 106 -110 106 -177 0 -80 -69 -179 -142 -203 -34 -12 -46
-38 -29 -64 16 -24 95 15 149 74 137 150 97 366 -83 451 -64 31 -179 33 -240
5z"/>
<path d="M3340 4138 c-28 -12 -257 -93 -398 -142 -108 -38 -124 -49 -99 -73
15 -16 20 -16 64 -1 111 37 223 78 240 86 33 17 176 62 181 58 2 -3 -26 -60
-64 -128 -37 -68 -82 -150 -99 -183 -17 -33 -39 -72 -49 -87 -20 -31 -15 -75
9 -84 14 -6 194 54 248 82 16 7 35 14 44 14 8 0 29 6 46 14 56 25 136 50 142
45 5 -6 -1 -18 -109 -211 -137 -244 -130 -228 -113 -245 24 -25 41 -10 87 74
53 97 87 159 162 293 32 57 58 109 58 115 0 6 -6 19 -13 29 -21 29 -76 15
-337 -84 -30 -12 -77 -27 -103 -34 -57 -16 -58 -21 11 104 25 47 61 112 79
145 17 33 43 81 58 107 30 56 31 79 7 101 -21 19 -19 19 -52 5z"/>
<path d="M7351 4058 c-15 -24 -29 -8 148 -168 86 -78 131 -146 131 -198 0 -42
-47 -128 -88 -162 -20 -16 -52 -33 -70 -36 -72 -14 -127 20 -312 194 -36 34
-73 61 -82 62 -23 0 -35 -47 -17 -65 238 -225 294 -265 370 -265 65 0 114 23
170 81 52 53 72 103 71 176 0 53 -4 55 137 -70 60 -53 112 -97 114 -97 3 0 12
12 22 26 l16 25 -62 57 c-35 31 -140 127 -233 212 -310 285 -289 269 -315 228z"/>
<path d="M3823 3633 c-29 -10 -13 -43 27 -59 85 -34 101 -96 47 -181 -55 -88
-177 -253 -188 -253 -5 0 -36 19 -69 41 -59 42 -90 46 -90 12 1 -17 67 -75
103 -89 24 -9 21 -22 -13 -74 l-30 -45 27 -22 27 -22 35 49 34 50 32 -20 c38
-24 58 -25 74 -6 10 11 5 20 -24 41 -19 15 -35 33 -35 39 0 7 43 72 96 146
104 145 134 197 134 230 0 24 -25 76 -49 104 -28 32 -112 68 -138 59z"/>
<path d="M6798 3536 c-31 -13 -69 -34 -86 -47 -81 -67 -125 -170 -76 -177 17
-2 26 7 44 42 26 55 90 112 139 126 51 14 126 12 164 -4 33 -14 77 -51 77 -64
0 -4 -84 -64 -186 -132 -102 -68 -189 -130 -191 -138 -8 -18 72 -98 122 -122
55 -26 164 -27 220 -1 51 23 109 80 137 134 16 31 22 60 22 112 0 61 -4 78
-34 133 -76 142 -212 196 -352 138z m308 -193 c8 -11 13 -45 14 -84 0 -57 -4
-71 -29 -106 -45 -62 -86 -86 -152 -91 -69 -5 -117 9 -153 46 -26 28 -26 29
-7 46 20 18 302 205 310 206 2 0 10 -8 17 -17z"/>
<path d="M4217 3272 c-42 -85 -129 -253 -165 -319 l-12 -22 -65 34 c-76 41
-91 43 -97 11 -4 -20 3 -27 46 -49 28 -14 59 -28 69 -31 9 -3 17 -15 17 -27 0
-26 -62 -105 -90 -114 -30 -10 -97 13 -118 40 -24 30 -38 32 -51 7 -34 -64
137 -137 219 -95 31 16 90 88 103 125 3 10 16 7 51 -10 l47 -22 9 22 c9 24 5
29 -51 68 -21 15 -21 16 85 222 58 113 106 215 106 226 0 19 -18 32 -43 32 -7
0 -34 -44 -60 -98z"/>
<path d="M6402 3314 c-26 -18 -28 -35 -8 -72 8 -15 26 -56 41 -92 14 -36 30
-74 35 -85 35 -82 38 -171 6 -220 -9 -14 -35 -38 -56 -53 -38 -26 -49 -53 -32
-79 9 -15 52 5 90 40 28 25 62 88 62 114 1 10 12 -3 26 -29 26 -52 28 -53 61
-35 l21 12 -30 70 c-41 97 -124 297 -156 378 -14 37 -29 67 -32 67 -3 0 -16
-7 -28 -16z"/>
<path d="M4525 3208 c-91 -34 -150 -102 -180 -204 -20 -68 -19 -98 4 -161 38
-103 96 -154 205 -180 129 -30 258 23 311 126 39 77 49 136 34 204 -27 131
-131 217 -271 223 -40 2 -86 -1 -103 -8z m202 -80 c70 -36 104 -95 104 -182 0
-208 -212 -310 -365 -175 -38 33 -45 47 -54 94 -16 95 14 193 76 248 57 51
157 57 239 15z"/>
<path d="M5792 3128 c-7 -7 -12 -24 -12 -38 0 -34 17 -50 52 -50 21 0 31 6 38
25 15 39 -3 75 -38 75 -15 0 -33 -5 -40 -12z"/>
<path d="M5145 3101 c-98 -25 -161 -110 -153 -202 9 -94 64 -137 243 -195 150
-48 198 -85 198 -153 0 -51 -25 -89 -74 -113 -44 -23 -177 -24 -234 -2 -95 36
-106 39 -116 23 -17 -27 -8 -39 47 -64 158 -70 343 -48 414 48 26 36 30 49 30
106 0 113 -39 149 -236 215 -158 54 -204 89 -204 154 0 34 7 48 38 81 29 31
47 41 86 46 107 16 225 -11 303 -70 31 -25 32 -25 43 -6 15 29 13 39 -15 63
-51 44 -133 69 -240 73 -55 3 -113 1 -130 -4z"/>
</g>
</svg>
